# xmcd CD database file
#
# Track frame offsets:
#	150
#	12046
#	21817
#	32260
#	46410
#	58794
#	69767
#	82493
#	95411
#	107389
#	121435
#	134477
#	148460
#	162177
#	174164
#
# Disc length: 2484 seconds
#
# Revision: 0
# Processed by: cddbd v1.5.1PL2 Copyright (c) Steve Scherf et al.
# Submitted via: CDex 1.51
#
DISCID=c309b20f
DTITLE=Superstars of Country - Dixie Road [CDTwo)
DYEAR=1900
DGENRE=Country
TTITLE0=Gene Watson - Fourteen Carat Mind
TTITLE1=Mel Tillis - I Ain't Never
TTITLE2=Bill Anderson - I Get the Fever
TTITLE3=Loretta Lynn - She's Got you
TTITLE4=Tom T. Hall - The Year That Clayton Delaney Died
TTITLE5=Roger Miller - King of the Road
TTITLE6=Don Williams - You're My Best Friend
TTITLE7=Cal Smith - The Lord Knows I'm Drinking
TTITLE8=Oak Ridge Boys - American Made
TTITLE9=Barbara Mandrell - (If Loving You is Wrong) I Don't Want to Be Right
TTITLE10=Conway Twitty - Happy Birthday Darlin'
TTITLE11=John Conlee - Lady Lay Down
TTITLE12=Dave Dudley - The Pool Shark
TTITLE13=John Schneider - I've Been Around Enough to Know
TTITLE14=Hank Williams Jr. - Eleven Roses
EXTD=
EXTT0=
EXTT1=
EXTT2=
EXTT3=
EXTT4=
EXTT5=
EXTT6=
EXTT7=
EXTT8=
EXTT9=
EXTT10=
EXTT11=
EXTT12=
EXTT13=
EXTT14=
PLAYORDER=
